<?xml version="1.0" standalone="no"?><!DOCTYPE svg PUBLIC "-//W3C//DTD SVG 1.1//EN" "http://www.w3.org/Graphics/SVG/1.1/DTD/svg11.dtd"><svg t="1536729945370" class="icon" style="" viewBox="0 0 1842 1024" version="1.1" xmlns="http://www.w3.org/2000/svg" p-id="1954" xmlns:xlink="http://www.w3.org/1999/xlink" width="17.98828125" height="10"><defs><style type="text/css"></style></defs><path d="M922.37058044 772.15978499L1664.81717444 29.917553a102.180924 102.180924 0 0 1 144.483827 0l2.55452303 2.554523a102.180924 102.180924 0 0 1 0 144.483827L1005.85239545 982.85685101a103.202733 103.202733 0 0 1-8.17447401 9.19628297l-2.55452299 2.55452302a102.180924 102.180924 0 0 1-102.89619101 25.34086898 101.7722 101.7722 0 0 1-42.40508301-25.54523098l-2.55452298-2.554523c-2.145799-2.145799-4.087237-4.39378-6.13085601-6.64176L33.19217845 177.16026401a102.180924 102.180924 0 0 1-2e-8-144.58600701L35.54234043 30.01973401a102.180924 102.180924 0 0 1 144.48382602-2e-8L922.47276145 772.15978499z" p-id="1955" fill="#ffffff"></path></svg>